<svg width="44" height="44" viewBox="0 0 44 44" fill="none" xmlns="http://www.w3.org/2000/svg">
<g clip-path="url(#clip0_101_118)">
<path d="M23.0609 23.7266C21.1488 24.7432 18.7745 24.0174 17.7579 22.1053L16.0534 18.8996C15.9264 18.6608 15.8629 18.5414 15.8469 18.4273C15.82 18.236 15.8791 18.0426 16.0084 17.899C16.0855 17.8134 16.2049 17.7499 16.4437 17.6229L21.701 14.8275C21.9398 14.7006 22.0592 14.6371 22.1733 14.6211C22.3646 14.5942 22.558 14.6533 22.7016 14.7826C22.7872 14.8597 22.8507 14.9791 22.9777 15.2179L24.6822 18.4236C25.6988 20.3356 24.973 22.7099 23.0609 23.7266ZM23.0609 23.7266L23.9813 25.4576M23.1481 15.5384L24.5907 14.7714C24.8595 14.6284 24.994 14.557 25.1234 14.5445C25.2959 14.5279 25.4679 14.5805 25.6017 14.6908C25.702 14.7734 25.7735 14.9079 25.9164 15.1767L26.0698 15.4652C26.3552 16.0019 26.4978 16.2702 26.5559 16.5217C26.7134 17.2042 26.4949 17.9189 25.9827 18.3966C25.7939 18.5726 25.5256 18.7153 24.989 19.0006M16.2238 19.2201L14.7813 19.9872C14.5124 20.1301 14.378 20.2016 14.2953 20.3019C14.185 20.4357 14.1324 20.6077 14.149 20.7802C14.1615 20.9096 14.233 21.0441 14.3759 21.3129L14.5293 21.6014C14.8147 22.1381 14.9573 22.4064 15.1334 22.5951C15.6111 23.1074 16.3258 23.3259 17.0082 23.1683C17.2597 23.1103 17.5281 22.9676 18.0647 22.6823M22.5799 29.1634L27.8372 26.3681C27.9788 26.2927 28.0326 26.1169 27.9573 25.9752C27.3548 24.8421 25.9479 24.412 24.8148 25.0145L23.1478 25.9008C22.0147 26.5033 21.5846 27.9102 22.1871 29.0433C22.2624 29.185 22.4382 29.2387 22.5799 29.1634Z" stroke="#FF5555" stroke-width="1.30704" stroke-linecap="round" stroke-linejoin="round"/>
</g>
<circle cx="22.1407" cy="21.9958" r="15.3578" transform="rotate(-28 22.1407 21.9958)" stroke="#FF5555" stroke-width="0.653521"/>
<defs>
<clipPath id="clip0_101_118">
<rect width="15.6845" height="15.6845" fill="white" transform="translate(11.5344 18.7529) rotate(-28)"/>
</clipPath>
</defs>
</svg>
