<svg width="43" height="44" viewBox="0 0 43 44" fill="none" xmlns="http://www.w3.org/2000/svg">
<g clip-path="url(#clip0_101_111)">
<path d="M21.8 19.4726L20.3575 20.2396C19.8795 20.4938 19.698 21.0873 19.9522 21.5654C20.2063 22.0434 20.7999 22.2248 21.2779 21.9707L21.8549 21.6639C22.333 21.4097 22.9265 21.5912 23.1807 22.0692C23.4349 22.5472 23.2534 23.1408 22.7754 23.3949L21.3328 24.162M20.3392 19.5092L20.646 20.0862M22.4868 23.5483L22.7937 24.1254M25.0286 19.9764L25.0343 19.9733M18.1043 23.6581L18.11 23.6551M14.6303 22.6927L16.962 27.0781C17.3057 27.7244 17.4775 28.0476 17.7346 28.2275C17.9607 28.3859 18.2311 28.4685 18.5071 28.4637C18.8208 28.4582 19.144 28.2864 19.7903 27.9428L27.6379 23.7701C28.2842 23.4265 28.6074 23.2547 28.7873 22.9976C28.9457 22.7715 29.0283 22.5011 29.0235 22.2251C29.018 21.9114 28.8462 21.5882 28.5025 20.9419L26.1708 16.5565C25.8271 15.9101 25.6553 15.587 25.3983 15.407C25.1722 15.2487 24.9017 15.166 24.6258 15.1708C24.312 15.1763 23.9889 15.3481 23.3425 15.6918L15.495 19.8644C14.8487 20.2081 14.5255 20.3799 14.3455 20.6369C14.1872 20.863 14.1045 21.1335 14.1093 21.4094C14.1148 21.7232 14.2866 22.0463 14.6303 22.6927ZM25.3171 19.823C25.4018 19.9823 25.3413 20.1802 25.182 20.2649C25.0226 20.3496 24.8248 20.2892 24.7401 20.1298C24.6553 19.9705 24.7158 19.7726 24.8752 19.6879C25.0345 19.6032 25.2324 19.6637 25.3171 19.823ZM18.3928 23.5047C18.4775 23.6641 18.417 23.8619 18.2577 23.9466C18.0983 24.0314 17.9005 23.9709 17.8158 23.8115C17.731 23.6522 17.7915 23.4543 17.9509 23.3696C18.1102 23.2849 18.3081 23.3454 18.3928 23.5047Z" stroke="#FF5555" stroke-width="1.30704" stroke-linecap="round" stroke-linejoin="round"/>
</g>
<circle cx="21.5665" cy="21.8173" r="15.3578" transform="rotate(-28 21.5665 21.8173)" stroke="#FF5555" stroke-width="0.653521"/>
<defs>
<clipPath id="clip0_101_111">
<rect width="15.6845" height="15.6845" fill="white" transform="translate(10.9604 18.5747) rotate(-28)"/>
</clipPath>
</defs>
</svg>
